PathFileType	3	(X/Y/Z)	F:\ViconData\AntennenMessung\Messung1\Session1\ID21.trc
DataRate	CameraRate	NumFrames	NumMarkers	Units	OrigDataRate	OrigDataStartFrame	OrigNumFrames
120.0	120.0	4	70	mm	120.0	704	1126	
Frame#	Time	Ashort			Along			Atop			A4			Bshort			Blong			Btop			B4			Cshort			Clong			Ctop			C4			Dshort			Dlong			Dtop			D4			Eshort			Elong			Etop			E4			Fshort			Flong			Ftop			F4			Gshort			Glong			Gtop			G4			Hshort			Hlong			Htop			H4			I1			I2			I3			I4			I5			WandAshort			WandAlong			WandAtop			WandA4			WandA15			WandBshort			WandB4			WandB5			WandBtop			WandBlong			WandCshort			WandClong			WandCtop			WandC4			WandC5			Acenter			Aantenna			Bcenter			Bantenna			Ccenter			Cantenna			Dcenter			Dantenna			Ecenter			Eantenna			Fcenter			Fantenna			Gcenter			Gantenna			Hcenter			Hantenna			Icenter			Iantenna			
		X1	Y1	Z1	X2	Y2	Z2	X3	Y3	Z3	X4	Y4	Z4	X5	Y5	Z5	X6	Y6	Z6	X7	Y7	Z7	X8	Y8	Z8	X9	Y9	Z9	X10	Y10	Z10	X11	Y11	Z11	X12	Y12	Z12	X13	Y13	Z13	X14	Y14	Z14	X15	Y15	Z15	X16	Y16	Z16	X17	Y17	Z17	X18	Y18	Z18	X19	Y19	Z19	X20	Y20	Z20	X21	Y21	Z21	X22	Y22	Z22	X23	Y23	Z23	X24	Y24	Z24	X25	Y25	Z25	X26	Y26	Z26	X27	Y27	Z27	X28	Y28	Z28	X29	Y29	Z29	X30	Y30	Z30	X31	Y31	Z31	X32	Y32	Z32	X33	Y33	Z33	X34	Y34	Z34	X35	Y35	Z35	X36	Y36	Z36	X37	Y37	Z37	X38	Y38	Z38	X39	Y39	Z39	X40	Y40	Z40	X41	Y41	Z41	X42	Y42	Z42	X43	Y43	Z43	X44	Y44	Z44	X45	Y45	Z45	X46	Y46	Z46	X47	Y47	Z47	X48	Y48	Z48	X49	Y49	Z49	X50	Y50	Z50	X51	Y51	Z51	X52	Y52	Z52	X53	Y53	Z53	X54	Y54	Z54	X55	Y55	Z55	X56	Y56	Z56	X57	Y57	Z57	X58	Y58	Z58	X59	Y59	Z59	X60	Y60	Z60	X61	Y61	Z61	X62	Y62	Z62	X63	Y63	Z63	X64	Y64	Z64	X65	Y65	Z65	X66	Y66	Z66	X67	Y67	Z67	X68	Y68	Z68	X69	Y69	Z69	X70	Y70	Z70	
704	5.8583333	-1038.2537	214.50197	-1644.1671	-1109.3752	204.24472	-1599.3428	-1063.9386	172.57964	-1625.4327	-1054.1738	262.36438	-1635.0006	-1352.9233	235.00475	1003.6245	-1281.3519	227.20508	1052.4418	-1322.652	194.01433	1020.9169	-1284.5851	287.9577	1052.6979	813.99353	187.77322	1209.4005	892.46655	178.57529	1179.1448	844.58972	145.34195	1198.3507	860.48511	292.5997	1167.4172	1115.7297	209.52698	-1401.4897	1056.0828	194.22777	-1460.412	1094.6865	161.88457	-1423.957	1069.8824	238.70212	-1425.7173	-1204.5651	1685.9609	-1563.1654	-1129.106	1688.3417	-1606.0557	-1173.2539	1724.3914	-1581.7925	-1134.0361	1581.0073	-1603.9153	-1239.67	1699.219	1119.5725	-1309.3452	1698.7279	1071.9321	-1270.4615	1736.4132	1096.9622	-1244.813	1593.9435	1105.926	988.84796	1664.2375	1162.2289	957.59509	1700.3026	1183.9249	923.01038	1661.9359	1215.078	939.80353	1659.4304	1159.85	998.96075	1668.5032	-1579.5209	1058.8237	1670.1425	-1518.7098	1024.9375	1708.062	-1551.188	1059.2186	1672.1581	-1585.5139	-209.66322	1636.9629	-265.36276	-216.67458	1638.4553	-181.2896	-213.43802	1674.4386	-228.36285	-244.7657	1635.4255	-231.25998	-164.43216	1640.4033	-225.41185																																														-1068.9574	210.07381	-1624.816	-1074.131	248.72391	-1624.1804	-1321.4204	231.57162	1025.1118	-1320.15	270.31006	1029.4387	848.25897	183.75691	1196.1892	851.96149	222.51945	1194.0082	1088.5663	202.55969	-1428.3229	1082.7961	240.91017	-1432.4393	-1172.0052	1686.9882	-1581.672	-1170.7042	1648.01	-1581.5465	-1271.0072	1698.998	1098.1458	-1271.5754	1660.0216	1099.3785	953.35242	1705.1985	1186.8701	973.10773	1733.3662	1168.5044	1026.4327	1669.2554	-1551.6136	1027.9342	1630.2866	-1552.0413	-212.80772	1637.6321	-227.65692	-212.14012	1598.645	-226.90916
705	5.8666667	-1038.2223	214.59946	-1644.1997	-1109.385	204.26669	-1599.358	-1063.7697	173.07253	-1625.6825	-1054.2246	262.40561	-1635.0311	-1352.8246	235.38152	1003.5637	-1281.356	227.15141	1052.423	-1322.6006	194.06169	1020.8262	-1284.625	287.99414	1052.66	813.93945	187.78606	1209.4133	892.50812	178.56403	1179.1523	844.33881	145.52403	1198.3109	860.92749	292.56418	1168.7076	1115.7368	209.54701	-1401.505	1056.1652	194.27797	-1460.5046	1094.6727	161.84888	-1423.9722	1069.8817	238.66872	-1425.7124	-1204.5566	1685.9596	-1563.1615	-1129.1006	1688.3524	-1606.0569	-1173.2102	1724.4456	-1581.8696	-1134.0443	1581.0062	-1603.9071	-1239.6993	1699.2572	1119.5857	-1308.214	1699.3619	1067.9441	-1270.4784	1736.4294	1096.9612	-1245.5851	1592.7664	1110.6853	988.90118	1664.2788	1162.2201	957.52124	1700.3231	1183.875	922.92865	1661.9675	1215.1198	939.76141	1659.4292	1159.8933	998.93121	1668.5029	-1579.5496	1058.8214	1670.1405	-1518.7028	1024.9398	1708.0671	-1551.1847	1059.2252	1672.1598	-1585.5056	-209.65965	1636.9594	-265.36984	-216.66182	1638.457	-181.28313	-213.4328	1674.4258	-228.37926	-244.63263	1635.2903	-231.20775	-164.42233	1640.3936	-225.41388																																														-1068.7167	210.17171	-1624.9844	-1073.8704	248.82283	-1624.2572	-1321.2274	231.74289	1025.1648	-1319.8165	270.46152	1029.6229	848.04608	183.78276	1196.277	851.80225	222.54671	1194.2162	1088.5983	202.59103	-1428.3828	1082.88	240.94542	-1432.5352	-1171.9309	1686.994	-1581.7084	-1170.5996	1648.0172	-1581.5408	-1270.2383	1699.3038	1096.5674	-1269.9862	1660.3068	1096.1539	953.19391	1705.2936	1186.8611	972.8891	1733.488	1168.4718	1026.4323	1669.2548	-1551.6091	1027.9309	1630.2859	-1552.0353	-212.79893	1637.6307	-227.67105	-212.12732	1598.6438	-226.92068
706	5.875	-1038.26	214.5741	-1644.1991	-1109.3949	204.20505	-1599.3204	-1063.8208	173.07866	-1625.6709	-1054.2255	262.41809	-1635.0424	-1352.9091	235.17825	1003.5984	-1281.3065	227.10324	1052.3225	-1322.6923	193.99641	1020.8664	-1284.6667	287.87115	1052.7579	813.93304	187.73643	1209.5077	892.47876	178.56194	1179.2433	844.58368	145.29892	1198.3568	860.64935	292.49655	1167.697	1115.7362	209.5835	-1401.5392	1056.076	194.18292	-1460.4785	1094.704	161.82948	-1423.9564	1069.8402	238.66089	-1425.7421	-1204.5502	1685.9542	-1563.1835	-1129.1189	1688.354	-1606.0715	-1173.2083	1724.4419	-1581.8667	-1134.0399	1581.0072	-1603.925	-1239.7025	1699.2715	1119.5953	-1308.3091	1699.6267	1068.2548	-1270.4474	1736.3967	1096.9501	-1245.6105	1592.8533	1110.7111	988.85425	1664.2399	1162.2202	957.11725	1700.6071	1183.8331	922.93787	1661.981	1215.0372	939.77429	1659.453	1159.8407	998.95337	1668.4939	-1579.5121	1058.8395	1670.1613	-1518.6986	1024.9484	1708.0676	-1551.1981	1059.2272	1672.1577	-1585.5114	-209.6736	1636.9557	-265.37415	-216.67691	1638.4764	-181.29062	-213.42358	1674.4352	-228.38353	-244.66151	1635.3243	-231.2126	-164.42802	1640.4072	-225.40497																																														-1068.7677	210.12711	-1624.9518	-1073.9282	248.77689	-1624.2019	-1321.3245	231.61629	1025.0911	-1319.9163	270.34738	1029.4406	848.27075	183.72563	1196.277	851.99036	222.49112	1194.179	1088.5624	202.56889	-1428.3846	1082.782	240.91229	-1432.5526	-1171.9369	1686.9917	-1581.7263	-1170.6138	1648.0144	-1581.5802	-1270.3962	1699.4302	1096.6261	-1270.3424	1660.4319	1096.2843	953.09534	1705.2156	1186.5718	972.72778	1733.3612	1168.0411	1026.4384	1669.259	-1551.6013	1027.9347	1630.2898	-1552.0062	-212.81418	1637.6376	-227.66722	-212.16855	1598.6504	-226.90833
707	5.8833333	-1038.264	214.5717	-1644.1647	-1109.3834	204.25291	-1599.3608	-1063.9923	172.59706	-1625.4178	-1054.2617	262.46579	-1635.1622	-1352.8468	235.12207	1003.4866	-1281.3673	227.2084	1052.3885	-1322.6792	194.04483	1020.881	-1284.6246	287.94769	1052.6677	813.98138	187.75389	1209.5065	892.46167	178.53363	1179.241	844.56976	145.28996	1198.3353	860.59692	292.62805	1167.4434	1115.7338	209.60313	-1401.5153	1056.2281	194.25237	-1460.438	1094.7	161.88213	-1423.9438	1069.9166	238.73726	-1425.7426	-1204.5573	1685.9584	-1563.1593	-1129.1122	1688.3591	-1606.0702	-1173.209	1724.4481	-1581.8728	-1134.0385	1581.0225	-1603.9419	-1239.6847	1699.2542	1119.577	-1309.0939	1698.3765	1071.8119	-1268.6594	1737.7535	1093.963	-1244.6847	1593.7783	1106.4865	988.87	1664.2179	1162.2246	957.56177	1700.2952	1183.8668	922.8869	1661.9493	1215.1271	939.76984	1659.4436	1159.8601	998.94574	1668.5054	-1579.5233	1058.7081	1669.9846	-1518.7251	1024.9545	1708.0793	-1551.1923	1059.2189	1672.1567	-1585.505	-209.67731	1636.9633	-265.36371	-216.6557	1638.4503	-181.30179	-213.43262	1674.4292	-228.37312	-244.6275	1635.298	-231.20801	-164.43547	1640.3942	-225.38072																																														-1069.0332	210.10736	-1624.7805	-1074.2269	248.75439	-1624.1241	-1321.3562	231.63567	1025.0306	-1319.9928	270.3765	1029.3071	848.29065	183.72305	1196.2753	852.04346	222.48642	1194.1975	1088.5955	202.60223	-1428.3876	1082.8469	240.94859	-1432.5723	-1171.9286	1686.9966	-1581.7174	-1170.5963	1648.0197	-1581.5557	-1270.9757	1698.8584	1098.0436	-1273.2815	1660.139	1102.1056	953.25018	1705.2635	1186.8473	972.99237	1733.4264	1168.4597	1026.363	1669.1838	-1551.6306	1027.7744	1630.2119	-1552.0698	-212.80641	1637.63	-227.67015	-212.14301	1598.6427	-226.92538
